# xmcd
#
# Track frame offsets: 
#        150
#        12916
#        25201
#        40342
#        49458
#        62879
#        75701
#        88342
#        104828
#        122129
#        135257
#        149778
#
# Disc length: 2170 seconds
#
# Revision: 1
# Processed by: cddbd v1.5.2PL0 Copyright (c) Steve Scherf et al.
# Submitted via: ExactAudioCopy v1.0b4
#
DISCID=b308780c
DTITLE=The Elvin Bishop Band - Rock My Soul
DYEAR=1972
DGENRE=Blues Rock
TTITLE0=Rock My Soul
TTITLE1=Holler And Shout
TTITLE2=Let It Shine
TTITLE3=Don't Mind If I Do
TTITLE4=Rock Bottom
TTITLE5=Last Mile (Instrumental)
TTITLE6=Have A Good Time
TTITLE7=Wings Of A Bird
TTITLE8=Old Man Trouble
TTITLE9=Out Behind The Barn
TTITLE10=Stomp (Instrumental)
TTITLE11=Sit And Wonder
EXTD=
EXTT0=
EXTT1=
EXTT2=
EXTT3=
EXTT4=
EXTT5=
EXTT6=
EXTT7=
EXTT8=
EXTT9=
EXTT10=
EXTT11=
PLAYORDER=
